HIERARCHY
ROOT Hips
{
	OFFSET 0.00000 0.00000 0.00000
	CHANNELS 6 Xposition Yposition Zposition Yrotation Zrotation Xrotation 
	JOINT Lumbar
	{
		OFFSET 0 0 0
		CHANNELS 3 Zrotation Xrotation Yrotation
		JOINT Neck
		{
			OFFSET 0.00 0.2701 0.00
			CHANNELS 3 Zrotation Xrotation Yrotation
			End Site
			{
				OFFSET 0.00 0.1379 0.00
			}
		}
		JOINT RightShoulder
		{
			OFFSET 0.0119 0.2289 0.1181
			CHANNELS 3 Zrotation Xrotation Yrotation
			JOINT RightElbow
			{
				OFFSET 0.00 -0.1475 0.00
				CHANNELS 2 Zrotation Yrotation
				JOINT RightWrist
				{
					OFFSET 0.00 -0.1605 0.00
					CHANNELS 2 Zrotation Xrotation
					End Site
					{
						OFFSET 0.0040 -0.1068 0.0006
					}
				}
			}
		}
		JOINT LeftShoulder
		{
			OFFSET 0.0119 0.2289 -0.1181
			CHANNELS 3 Zrotation Xrotation Yrotation
			JOINT LeftElbow
			{
				OFFSET 0.00 -0.1475 0.00
				CHANNELS 2 Zrotation Yrotation
				JOINT LeftWrist
				{
					OFFSET 0.00 -0.1605 0.00
					CHANNELS 2 Zrotation Xrotation
					End Site
					{
						OFFSET 0.0040 -0.1068 -0.0006
					}
				}
			}
		}
	}
	JOINT RightHip
	{
		OFFSET 0.0316 -0.0424 0.0458
		CHANNELS 3 Zrotation Xrotation Yrotation
		JOINT RightKnee
		{
			OFFSET 0.00 -0.2438 0.00
			CHANNELS 1 Zrotation
			JOINT RightAnkle
			{
				OFFSET 0.00 -0.2449 0.00
				CHANNELS 3 Zrotation Xrotation Yrotation
				End Site
				{
					OFFSET 0.1237 -0.0542 0.0051
				}
			}
		}
	}
	JOINT LeftHip
	{
		OFFSET 0.0316 -0.0424 -0.0458
		CHANNELS 3 Zrotation Xrotation Yrotation
		JOINT LeftKnee
		{
			OFFSET 0.00 -0.2438 0.00
			CHANNELS 1 Zrotation
			JOINT LeftAnkle
			{
				OFFSET 0.00 -0.2449 0.00
				CHANNELS 3 Zrotation Xrotation Yrotation
				End Site
				{
					OFFSET 0.1237 -0.0542 -0.0051
				}
			}
		}
	}
}
MOTION
Frames: 27
Frame Time: 0.02
-0.10594 -0.17751 0.04858 25.21853 -19.40068 -4.58783 36.8243 0.67946 0.61225 -6.18675 -1.90965 -2.1198 33.39108 -41.67794 46.11339 99.39073 85.0651 8.70407 -1.57329 18.31049 24.01525 -42.84092 99.38576 -82.38507 5.56021 2.39236 97.05251 -11.48365 -8.3714 -77.23689 -7.56245 -2.25931 -3.38391 98.90895 12.11166 8.34211 -71.53078 -10.59513 2.83351 3.81317
-0.10598 -0.1775 0.0486 25.19582 -19.39149 -4.54521 36.74138 0.65635 0.67135 -6.20959 -1.91412 -2.1198 33.12937 -41.33682 45.94065 99.24386 85.36885 10.01741 -1.65588 18.16941 23.80669 -42.62575 99.07828 -82.27506 6.49265 2.51401 97.05944 -11.43726 -8.31123 -77.22329 -7.5656 -2.26194 -3.38516 98.88673 12.10335 8.33706 -71.51763 -10.59922 2.83768 3.8157
-0.10604 -0.17749 0.04863 25.17088 -19.37237 -4.49146 36.64317 0.62377 0.73145 -6.23241 -1.91959 -2.1198 33.14033 -41.12196 46.14461 99.12765 85.75519 11.39616 -1.70014 17.91157 23.46777 -42.23935 98.73759 -82.09786 7.56518 2.68144 97.05629 -11.39252 -8.24518 -77.20303 -7.5697 -2.26417 -3.386 98.84573 12.1163 8.36998 -71.4987 -10.6031 2.83978 3.81734
-0.10609 -0.17748 0.04865 25.14721 -19.35873 -4.44292 36.55379 0.59509 0.786 -6.25335 -1.92472 -2.1198 33.08019 -40.86428 46.20542 99.01685 86.0718 12.7237 -1.76619 17.71817 23.20342 -41.95514 98.41188 -81.92816 8.55425 2.82932 97.05827 -11.34919 -8.18347 -77.18657 -7.57337 -2.26628 -3.38688 98.81397 12.12085 8.38787 -71.48286 -10.60678 2.84258 3.81922
-0.10616 -0.17748 0.04868 25.1222 -19.34092 -4.39385 36.45639 0.56827 0.8624 -6.28265 -1.92939 -2.1198 32.78703 -40.54155 46.14172 98.82683 86.52716 14.15186 -1.8156 17.48054 22.87879 -41.575 98.08566 -81.85043 9.62975 2.97317 97.05802 -11.29647 -8.11484 -77.16684 -7.57702 -2.26969 -3.38842 98.77933 12.12075 8.39676 -71.46508 -10.61172 2.8464 3.82176
-0.1062 -0.17746 0.04869 25.09948 -19.32966 -4.34321 36.37239 0.53522 0.89316 -6.29399 -1.93524 -2.1198 33.04944 -40.38265 46.424 98.80629 86.70997 15.38289 -1.89011 17.30392 22.64505 -41.34826 97.75243 -81.57202 10.55815 3.13462 97.06022 -11.26366 -8.05904 -77.15234 -7.58096 -2.27027 -3.38848 98.74644 12.13494 8.43296 -71.44995 -10.61402 2.84762 3.82275
-0.10618 -0.17739 0.04866 25.08473 -19.33658 -4.29075 36.32562 0.48785 0.80066 -6.26053 -1.94428 -2.1198 34.76055 -40.68266 47.6342 99.26903 86.14588 16.04294 -2.04019 17.34846 22.71914 -41.62544 97.41492 -80.69568 11.03638 3.34825 97.06893 -11.28724 -8.04191 -77.15394 -7.58535 -2.26333 -3.38461 98.71989 12.18541 8.53896 -71.44365 -10.60864 2.84192 3.81958
-0.10614 -0.17731 0.0486 25.07226 -19.35086 -4.23712 36.29348 0.43443 0.66166 -6.20802 -1.95445 -2.1198 37.02636 -41.1372 49.16946 99.89661 85.30016 16.50187 -2.21707 17.45402 22.88443 -42.05566 97.07049 -79.63042 11.3627 3.57544 97.08092 -11.33056 -8.03762 -77.16104 -7.59003 -2.2535 -3.37926 98.69629 12.24899 8.67035 -71.44018 -10.6007 2.83373 3.81492
-0.1061 -0.17723 0.04855 25.05805 -19.36329 -4.18408 36.2569 0.38334 0.54188 -6.16122 -1.964 -2.1198 39.05119 -41.49749 50.5149 100.43419 84.56575 17.05944 -2.38349 17.51519 22.99103 -42.38958 96.72486 -78.69176 11.76484 3.78651 97.09313 -11.36364 -8.02619 -77.16563 -7.59467 -2.24486 -3.37455 98.67328 12.30529 8.78785 -71.43537 -10.5942 2.82682 3.81102
-0.10607 -0.17716 0.0485 25.04657 -19.36905 -4.1303 36.21047 0.33355 0.43002 -6.12726 -1.97405 -2.1198 41.03711 -41.96353 52.05006 101.03801 83.90287 17.59269 -2.54158 17.64134 23.16509 -42.82877 96.3962 -77.58081 12.14464 4.04044 97.09776 -11.40193 -8.01984 -77.17006 -7.59896 -2.23676 -3.36993 98.64139 12.36833 8.91703 -71.43063 -10.58647 2.8192 3.80671
-0.10603 -0.17707 0.04844 25.03016 -19.39062 -4.07806 36.18826 0.2799 0.29087 -6.06154 -1.9833 -2.1198 43.23404 -42.24434 53.26356 101.54077 83.02529 18.12324 -2.72358 17.64979 23.22301 -43.08945 96.03122 -76.78211 12.53139 4.20868 97.1191 -11.4343 -8.00629 -77.17619 -7.60404 -2.22685 -3.36479 98.62906 12.41966 9.02686 -71.42643 -10.58074 2.81251 3.80294
-0.10597 -0.17694 0.04838 24.99815 -19.45365 -4.02927 36.22925 0.21595 0.08534 -5.91688 -1.99001 -2.1198 45.86038 -41.97509 53.49588 101.73992 81.60689 18.73412 -2.96743 17.30483 22.92991 -42.8017 95.56613 -76.91433 12.98762 4.12854 97.18567 -11.44321 -7.9674 -77.18584 -7.61126 -2.21266 -3.35868 98.66899 12.43961 9.08189 -71.42372 -10.58076 2.80868 3.80091
-0.10589 -0.17679 0.04831 24.96141 -19.53248 -3.98236 36.29421 0.14862 -0.14557 -5.74007 -1.99587 -2.11981 48.68057 -41.51319 53.39256 101.82877 79.98694 19.3412 -3.23384 16.84253 22.51908 -42.33335 95.06544 -77.36309 13.45271 3.96308 97.26901 -11.44584 -7.92121 -77.19701 -7.61927 -2.19676 -3.3521 98.72881 12.44652 9.11558 -71.42137 -10.58295 2.80591 3.7995
-0.10582 -0.17665 0.04824 24.92774 -19.60438 -3.93532 36.34837 0.08359 -0.36335 -5.57544 -2.00214 -2.11981 51.42381 -41.1399 53.45158 101.9574 78.46729 19.92498 -3.48898 16.44324 22.16786 -41.96021 94.58189 -77.65296 13.90465 3.8419 97.34475 -11.45289 -7.87996 -77.20741 -7.62692 -2.18162 -3.34569 98.78028 12.45642 9.15549 -71.41845 -10.58442 2.80288 3.79793
-0.10574 -0.17651 0.04817 24.89012 -19.67544 -3.88503 36.40268 0.01497 -0.58966 -5.42081 -2.00839 -2.11981 54.14483 -40.76934 53.48635 102.13473 76.89266 20.60938 -3.75068 16.00468 21.79334 -41.53637 94.09296 -78.00113 14.39071 3.69777 97.42046 -11.45423 -7.83252 -77.21837 -7.63461 -2.16641 -3.33937 98.82888 12.47881 9.2105 -71.41731 -10.58471 2.79888 3.79584
-0.10567 -0.17637 0.04811 24.85975 -19.75197 -3.84216 36.46214 -0.0467 -0.80342 -5.23747 -2.01443 -2.11981 56.94424 -40.34316 53.48064 102.18322 75.39896 21.08349 -4.00205 15.61981 21.43897 -41.17387 93.6082 -78.30368 14.80873 3.58124 97.50026 -11.46547 -7.79578 -77.22842 -7.64238 -2.15102 -3.3328 98.88821 12.47237 9.22931 -71.41253 -10.58796 2.79711 3.79496
-0.10562 -0.17621 0.04805 24.84915 -19.83895 -3.81761 36.53027 -0.08994 -0.97786 -4.98675 -2.0202 -2.11981 59.96741 -39.82901 53.50489 101.89341 74.08607 20.99895 -4.23407 15.40678 21.16199 -41.01871 93.13257 -78.42112 15.04585 3.55919 97.58643 -11.50767 -7.79293 -77.23571 -7.65027 -2.13513 -3.32541 98.97166 12.38533 9.14746 -71.39745 -10.59938 2.80186 3.79762
-0.10556 -0.17604 0.048 24.84625 -19.93098 -3.80078 36.60261 -0.12575 -1.13822 -4.70752 -2.02575 -2.11981 63.05018 -39.26208 53.48853 101.47845 72.87854 20.69988 -4.45237 15.25231 20.91002 -40.93149 92.66466 -78.48042 15.21303 3.56803 97.67625 -11.55961 -7.80063 -77.24198 -7.65818 -2.11919 -3.31782 99.06532 12.27038 9.0308 -71.37872 -10.61364 2.8087 3.80144
-0.10551 -0.17589 0.04795 24.84074 -20.02114 -3.78151 36.67275 -0.1639 -1.30386 -4.43888 -2.03132 -2.11981 66.06637 -38.7054 53.44828 101.12648 71.68658 20.48629 -4.6667 15.07434 20.65102 -40.81705 92.20032 -78.55382 15.40725 3.56467 97.76494 -11.60555 -7.80165 -77.24861 -7.66602 -2.10356 -3.31048 99.15473 12.17097 8.93398 -71.36177 -10.62626 2.81414 3.80451
-0.10544 -0.17572 0.0479 24.83136 -20.11008 -3.75775 36.745 -0.20656 -1.47537 -4.1794 -2.03722 -2.11981 69.25459 -38.19686 53.56979 100.74589 70.2262 20.32353 -4.92348 14.87996 20.37044 -40.68278 91.70413 -78.68538 15.62255 3.55161 97.85208 -11.65773 -7.81005 -77.25574 -7.67417 -2.08669 -3.3025 99.24324 12.05933 8.8199 -71.34435 -10.64039 2.82148 3.80852
-0.1054 -0.17557 0.04785 24.8319 -20.20252 -3.74519 36.81345 -0.23799 -1.63069 -3.8941 -2.04236 -2.11981 72.09838 -37.58204 53.356 100.39545 69.34421 20.00357 -5.09011 14.73418 20.1413 -40.60602 91.27746 -78.68389 15.77616 3.5659 97.94299 -11.69957 -7.80609 -77.26154 -7.68166 -2.07238 -3.29578 99.33575 11.96635 8.73322 -71.32702 -10.65208 2.8254 3.81087
-0.10541 -0.1755 0.04782 24.85833 -20.3036 -3.76141 36.871 -0.24058 -1.74687 -3.54811 -2.04581 -2.11981 73.95415 -36.65357 52.16893 100.1693 70.1048 19.30587 -4.99628 14.71787 20.0574 -40.69226 91.03351 -78.27432 15.78618 3.66022 98.04428 -11.70795 -7.76169 -77.2641 -7.68731 -2.06539 -3.29271 99.43686 11.93494 8.7357 -71.31099 -10.65589 2.81892 3.80813
-0.10543 -0.17545 0.04779 24.89442 -20.40788 -3.78866 36.92433 -0.23205 -1.84669 -3.17663 -2.04844 -2.11981 75.46416 -35.6276 50.65912 99.97652 71.42993 18.45663 -4.81561 14.74759 20.02364 -40.8316 90.86077 -77.73997 15.73495 3.77951 98.14896 -11.70603 -7.70515 -77.26532 -7.69228 -2.06095 -3.29089 99.54151 11.92288 8.76626 -71.29516 -10.6572 2.80898 3.80371
-0.10545 -0.17539 0.04776 24.92588 -20.51051 -3.81101 36.97909 -0.2284 -1.95248 -2.81461 -2.05126 -2.11981 77.14638 -34.6683 49.33514 99.76205 72.45304 17.67437 -4.68344 14.75007 19.96091 -40.93309 90.66048 -77.29915 15.7051 3.87948 98.25148 -11.7106 -7.65666 -77.26702 -7.69755 -2.05519 -3.2884 99.64447 11.89978 8.78062 -71.27911 -10.65995 2.80091 3.80021
-0.10547 -0.17533 0.04773 24.95868 -20.61424 -3.83316 37.03613 -0.22526 -2.06403 -2.46046 -2.05488 -2.11981 78.7681 -33.61059 47.84038 99.57025 73.67841 16.89286 -4.50967 14.77972 19.92347 -41.09233 90.44026 -76.70744 15.69905 4.01279 98.35688 -11.70815 -7.59801 -77.26922 -7.70289 -2.05007 -3.28633 99.7483 11.88467 8.80771 -71.26339 -10.66158 2.79172 3.79612
-0.10548 -0.17527 0.0477 24.9908 -20.71625 -3.85827 37.0873 -0.21845 -2.15982 -2.08434 -2.0566 -2.11981 80.43175 -32.73798 46.63006 99.34135 74.60669 16.07625 -4.40584 14.76484 19.84696 -41.14607 90.27817 -76.39307 15.63106 4.08389 98.45689 -11.71741 -7.55729 -77.27007 -7.70791 -2.04424 -3.2837 99.85081 11.85852 8.81613 -71.24716 -10.66483 2.78396 3.79281
-0.10548 -0.17516 0.04766 25.01954 -20.8137 -3.88868 37.12381 -0.2048 -2.21665 -1.65341 -2.05358 -2.11981 82.30158 -32.3774 46.24026 98.99837 74.65647 15.20497 -4.48167 14.59921 19.63269 -40.8688 90.26098 -76.94615 15.39605 3.96189 98.5422 -11.76422 -7.57097 -77.26741 -7.71223 -2.03561 -3.27905 99.9504 11.79157 8.75982 -71.22881 -10.67379 2.78137 3.79236
